<svg width="512" height="512" viewBox="0 0 512 512" fill="none" xmlns="http://www.w3.org/2000/svg">
  <defs>
    <linearGradient id="p" x1="92" y1="82" x2="420" y2="430" gradientUnits="userSpaceOnUse">
      <stop stop-color="#C4B5FD"/>
      <stop offset="0.45" stop-color="#7C3AED"/>
      <stop offset="1" stop-color="#4C1D95"/>
    </linearGradient>
  </defs>
  <path d="M86 246C86 151 164 96 257 106C350 116 428 187 418 272C407 356 339 414 239 402C148 391 86 341 86 246Z" stroke="url(#p)" stroke-width="28" stroke-linecap="round" stroke-linejoin="round"/>
  <path d="M214 264C244 229 309 220 340 244C365 264 348 301 312 315C276 329 244 314 214 286C205 278 205 274 214 264Z" stroke="url(#p)" stroke-width="30" stroke-linecap="round" stroke-linejoin="round"/>
  <path d="M197 184C184 199 189 222 207 225C225 228 236 209 231 193" stroke="#DDD6FE" stroke-width="18" stroke-linecap="round" stroke-linejoin="round"/>
  <path d="M210 196L221 185" stroke="#FFFFFF" stroke-width="12" stroke-linecap="round"/>
  <path d="M250 405V456" stroke="url(#p)" stroke-width="22" stroke-linecap="round"/>
  <path d="M294 405V456" stroke="url(#p)" stroke-width="22" stroke-linecap="round"/>
  <path d="M220 456H326" stroke="url(#p)" stroke-width="22" stroke-linecap="round"/>
</svg>
