<svg width="512" height="512" viewBox="0 0 512 512" fill="none" xmlns="http://www.w3.org/2000/svg" role="img" aria-labelledby="title desc">
  <title id="title">Bidra bird mark</title>
  <desc id="desc">A premium purple Bidra mark inspired by a childlike hand-drawn bird outline.</desc>
  <defs>
    <linearGradient id="bidraPurple" x1="88" y1="78" x2="438" y2="450" gradientUnits="userSpaceOnUse">
      <stop stop-color="#D8B4FE"/>
      <stop offset="0.38" stop-color="#A855F7"/>
      <stop offset="1" stop-color="#5B21B6"/>
    </linearGradient>
    <linearGradient id="bidraSoft" x1="170" y1="120" x2="342" y2="342" gradientUnits="userSpaceOnUse">
      <stop stop-color="#FFFFFF"/>
      <stop offset="1" stop-color="#C4B5FD"/>
    </linearGradient>
    <filter id="glow" x="48" y="48" width="416" height="416" filterUnits="userSpaceOnUse" color-interpolation-filters="sRGB">
      <feGaussianBlur stdDeviation="9" result="blur"/>
      <feColorMatrix in="blur" type="matrix" values="0 0 0 0 0.43 0 0 0 0 0.12 0 0 0 0 0.92 0 0 0 0.28 0"/>
      <feBlend in="SourceGraphic" mode="normal"/>
    </filter>
  </defs>
  <rect width="512" height="512" rx="128" fill="#120724"/>
  <path opacity="0.72" d="M84 246C84 150 164 93 258 104C354 115 435 187 424 273C413 359 343 420 239 406C147 393 84 342 84 246Z" stroke="url(#bidraPurple)" stroke-width="28" stroke-linecap="round" stroke-linejoin="round" filter="url(#glow)"/>
  <path d="M214 264C244 229 311 219 342 244C367 265 349 302 312 316C276 330 244 314 214 286C205 278 205 274 214 264Z" stroke="url(#bidraPurple)" stroke-width="30" stroke-linecap="round" stroke-linejoin="round"/>
  <path d="M197 184C184 199 189 222 207 225C225 228 236 209 231 193" stroke="url(#bidraSoft)" stroke-width="18" stroke-linecap="round" stroke-linejoin="round"/>
  <path d="M210 196L221 185" stroke="#F5F3FF" stroke-width="13" stroke-linecap="round"/>
  <path d="M250 406V456" stroke="url(#bidraPurple)" stroke-width="22" stroke-linecap="round"/>
  <path d="M295 406V456" stroke="url(#bidraPurple)" stroke-width="22" stroke-linecap="round"/>
  <path d="M220 456H326" stroke="url(#bidraPurple)" stroke-width="22" stroke-linecap="round"/>
</svg>
