<svg width="520" height="148" viewBox="0 0 520 148" fill="none" xmlns="http://www.w3.org/2000/svg" role="img" aria-labelledby="title desc">
  <title id="title">Bidra</title>
  <desc id="desc">Bidra horizontal marketplace logo</desc>
  <g fill="#0B4DFF">
    <path d="M57.8 16.2c10.8-10.8 28.4-10.8 39.2 0l20.7 20.7c6.4 6.4 6.4 16.8 0 23.2L97 80.8c-10.8 10.8-28.4 10.8-39.2 0L37.1 60.1c-6.4-6.4-6.4-16.8 0-23.2l20.7-20.7Z"/>
    <path d="M19.4 67.8c8.2-8.2 21.5-8.2 29.7 0l31.1 31.1c8.2 8.2 8.2 21.5 0 29.7-8.2 8.2-21.5 8.2-29.7 0L19.4 97.5c-8.2-8.2-8.2-21.5 0-29.7Z"/>
    <path d="M85.6 91.3c8.2-8.2 21.5-8.2 29.7 0l13.3 13.3c8.2 8.2 8.2 21.5 0 29.7-8.2 8.2-21.5 8.2-29.7 0l-13.3-13.3c-8.2-8.2-8.2-21.5 0-29.7Z"/>
  </g>
  <path d="M179 112.5V28h22.5v31.2c5.1-6 12.1-9 21-9 16.4 0 28.4 12.8 28.4 31.8 0 19.4-12.4 32.2-28.8 32.2-9.1 0-16.1-3.5-20.9-9.6v7.9H179Zm22.1-30.4c0 8.9 5.8 14.9 13.8 14.9 8.2 0 13.7-6.1 13.7-14.9 0-8.8-5.5-14.8-13.7-14.8-8 0-13.8 6-13.8 14.8Zm62.4 30.4V51.9H286v60.6h-22.5Zm-1.3-77.4c0-6.7 5.4-11.7 12.6-11.7s12.6 5 12.6 11.7c0 6.8-5.4 11.8-12.6 11.8s-12.6-5-12.6-11.8Zm40.1 46.9c0-19 12.2-31.8 28.4-31.8 8.5 0 15.5 3.2 20.4 8.8V28h22.5v84.5h-21.9v-8c-4.9 6.2-12 9.7-21.1 9.7-16.2 0-28.3-12.8-28.3-32.2Zm22.4.1c0 8.8 5.6 14.9 13.7 14.9s13.6-6.1 13.6-14.9c0-8.8-5.5-14.8-13.6-14.8s-13.7 6-13.7 14.8Zm65.1 30.4V51.9h21.9v9.5c4.3-7.1 10.9-10.6 19.8-10.6 1.9 0 3.9.2 5.5.6v20.8c-2.2-.5-4.8-.8-7.6-.8-10.4 0-17.1 5.8-17.1 17.6v23.5h-22.5Zm51.8-30.4c0-19 12.1-31.9 28.7-31.9 9.2 0 16.1 3.5 20.8 9.6v-7.9H513v60.6h-21.9v-8c-4.8 6.2-11.8 9.7-21 9.7-16.4 0-28.5-12.9-28.5-32.1Zm22.4 0c0 8.8 5.6 14.9 13.7 14.9 8.1 0 13.7-6.1 13.7-14.9 0-8.8-5.6-14.8-13.7-14.8-8.1 0-13.7 6-13.7 14.8Z" fill="#06132B"/>
</svg>
