<svg width="148" height="148" viewBox="0 0 148 148" fill="none" xmlns="http://www.w3.org/2000/svg" role="img" aria-labelledby="title">
  <title id="title">Bidra symbol</title>
  <rect width="148" height="148" rx="34" fill="#EEF4FF"/>
  <g fill="#0B4DFF">
    <path d="M58 16c11-11 28.9-11 39.9 0l21.1 21.1c6.5 6.5 6.5 17.1 0 23.6L97.9 81.8c-11 11-28.9 11-39.9 0L36.9 60.7c-6.5-6.5-6.5-17.1 0-23.6L58 16Z"/>
    <path d="M18.9 68.6c8.4-8.4 21.9-8.4 30.3 0l31.7 31.7c8.4 8.4 8.4 21.9 0 30.3-8.4 8.4-21.9 8.4-30.3 0L18.9 98.9c-8.4-8.4-8.4-21.9 0-30.3Z"/>
    <path d="M86.3 92.5c8.4-8.4 21.9-8.4 30.3 0l13.5 13.5c8.4 8.4 8.4 21.9 0 30.3-8.4 8.4-21.9 8.4-30.3 0l-13.5-13.5c-8.4-8.4-8.4-21.9 0-30.3Z"/>
  </g>
</svg>
