<svg width="512" height="512" viewBox="0 0 512 512" fill="none" xmlns="http://www.w3.org/2000/svg"><path d="M86 246C86 151 164 96 257 106C350 116 428 187 418 272C407 356 339 414 239 402C148 391 86 341 86 246Z" stroke="#7C3AED" stroke-width="28" stroke-linecap="round" stroke-linejoin="round"/><path d="M214 264C244 229 309 220 340 244C365 264 348 301 312 315C276 329 244 314 214 286C205 278 205 274 214 264Z" stroke="#7C3AED" stroke-width="30" stroke-linecap="round" stroke-linejoin="round"/><path d="M197 184C184 199 189 222 207 225C225 228 236 209 231 193" stroke="#A78BFA" stroke-width="18" stroke-linecap="round" stroke-linejoin="round"/><path d="M250 405V456M294 405V456M220 456H326" stroke="#7C3AED" stroke-width="22" stroke-linecap="round"/></svg>